# xmcd
#
# Track frame offsets: 
#        150
#        7267
#        17977
#        26442
#        37235
#        51947
#        62352
#        75740
#        83645
#        102587
#        113780
#        125285
#        137157
#        147310
#        166415
#        177607
#
# Disc length: 2500 seconds
#
# Revision: 0
# Processed by: cddbd v1.5.1PL2 Copyright (c) Steve Scherf et al.
# Submitted via: ExactAudioCopy v0.95b3
#
DISCID=df09c210
DTITLE=Tex Williams - The Very Best
DYEAR=2000
DGENRE=Western Swing
TTITLE0=Shame on You [1976]
TTITLE1=The Battle of New Orleans [1959]
TTITLE2=River, Stay Away from My Door [1960]
TTITLE3=I'll Hold You in My Heart [1959]
TTITLE4=Big, Bad John [1976]
TTITLE5=Little Ole Wine Drinker Me [1976]
TTITLE6=Thunder on the River [1960]
TTITLE7=I Think I'd Better Pray [1976]
TTITLE8=Old Dogs, Children and Watermelon Wine [1976]
TTITLE9=Where Do We Go from Here? [1960 - with Bonnie Sloan]
TTITLE10=Yankee, Go Home [1959 - with Bonnie Sloan]
TTITLE11=The Keeper of Boot Hill [1959]
TTITLE12=Shakespeare Cha-Cha [1959?]
TTITLE13=Giddy-Up Go [1959?]
TTITLE14=Love Carefully [1959?]
TTITLE15=Bummin' Around [1960]
EXTD=Subtitle: The Shasta Masters\nCD: Varèse Sarabande Records 302 06
EXTD=6 137 2 (2000-07-25), UPC 030206613728.
EXTT0=
EXTT1=
EXTT2=
EXTT3=
EXTT4=
EXTT5=
EXTT6=
EXTT7=
EXTT8=
EXTT9=
EXTT10=
EXTT11=
EXTT12=
EXTT13=
EXTT14=
EXTT15=
PLAYORDER=
